<svg xmlns="http://www.w3.org/2000/svg" width="24" height="24" viewBox="0 0 24 24">
  <path fill="currentColor" d="M12.545 12.151c0 .866-.563 1.599-1.366 1.599c-.805 0-1.368-.733-1.368-1.599c0-.866.563-1.599 1.368-1.599c.803 0 1.366.733 1.366 1.599zm5.037-.546v1.087h-1.611v1.611h-1.087v-1.611h-1.611v-1.087h1.611v-1.611h1.087v1.611h1.611zm-9.486 4.072c-2.704 0-4.899-2.195-4.899-4.899c0-2.704 2.195-4.899 4.899-4.899c1.171 0 2.248.414 3.09 1.101l.896-.896c-1.039-.869-2.373-1.392-3.824-1.392c-3.314 0-6 2.686-6 6c0 3.314 2.686 6 6 6c3.314 0 6-2.686 6-6h-1.639c0 2.704-2.195 4.899-4.899 4.899z" />
</svg>